<svg width="27" height="38" viewBox="0 0 27 38" fill="none" xmlns="http://www.w3.org/2000/svg">
<g clip-path="url(#clip0_2488_195)">
<path fill-rule="evenodd" clip-rule="evenodd" d="M4.8211 37.8563H1.77916C0.796819 37.8563 0 37.0974 0 36.1612V1.69508C0 0.758916 0.795964 0 1.77916 0H4.8211C6.85026 0 7.68192 9.63933 7.79138 12.6958C8.01035 8.92658 8.67656 0 9.46445 0H11.4719C12.438 0 13.2211 8.35582 13.2211 19.7223C13.2211 25.459 12.438 37.8563 11.4719 37.8563H9.46445C8.62272 37.8563 7.91988 28.8734 7.75287 25.9806C7.54637 29.6501 6.69411 37.8572 4.8211 37.8572V37.8563ZM17.8489 19.0768C17.8489 29.5277 16.9636 37.9998 15.8714 37.9998C14.7793 37.9998 13.8939 29.5277 13.8939 19.0768C13.8939 8.62592 14.7793 0.153809 15.8714 0.153809C16.9636 0.153809 17.8489 8.62592 17.8489 19.0768ZM21.0721 24.2802C21.914 24.2802 22.5965 19.0865 22.5965 12.6797C22.5965 6.27285 21.914 1.0791 21.0721 1.0791C20.2302 1.0791 19.5477 6.27285 19.5477 12.6797C19.5477 19.0865 20.2302 24.2802 21.0721 24.2802ZM21.072 37.8896C21.5559 37.8896 22.3921 36.1292 22.3921 33.9582C22.3921 31.7873 21.6123 30.0269 21.072 30.0269C20.4932 30.0269 19.752 31.7873 19.752 33.9582C19.752 36.1292 20.5881 37.8896 21.072 37.8896ZM25.8992 20.556C26.2864 20.556 26.6002 17.0146 26.6002 12.6459C26.6002 8.27732 26.2864 4.73584 25.8992 4.73584C25.512 4.73584 25.1981 8.27732 25.1981 12.6459C25.1981 17.0146 25.512 20.556 25.8992 20.556ZM25.8991 37.8571C26.1163 37.8571 26.5062 37.1395 26.5062 36.255C26.5062 35.3704 26.1727 34.6528 25.8991 34.6528C25.6059 34.6528 25.2921 35.3704 25.2921 36.255C25.2921 37.1395 25.6632 37.8571 25.8991 37.8571Z" fill="#CBFF54"/>
</g>
<defs>
<clipPath id="clip0_2488_195">
<rect width="27" height="38" fill="white"/>
</clipPath>
</defs>
</svg>
