<svg width="239" height="38" viewBox="0 0 239 38" fill="none" xmlns="http://www.w3.org/2000/svg">
<g clip-path="url(#clip0_2488_194)">
<path fill-rule="evenodd" clip-rule="evenodd" d="M4.8211 37.8563H1.77916C0.796819 37.8563 0 37.0974 0 36.1612V1.69508C0 0.758916 0.795964 0 1.77916 0H4.8211C6.85026 0 7.68192 9.63933 7.79138 12.6958C8.01035 8.92658 8.67656 0 9.46445 0H11.4719C12.438 0 13.2211 8.35582 13.2211 19.7223C13.2211 25.459 12.438 37.8563 11.4719 37.8563H9.46445C8.62272 37.8563 7.91988 28.8734 7.75287 25.9806C7.54637 29.6501 6.69411 37.8572 4.8211 37.8572V37.8563ZM17.8489 19.0768C17.8489 29.5277 16.9636 37.9998 15.8714 37.9998C14.7793 37.9998 13.8939 29.5277 13.8939 19.0768C13.8939 8.62592 14.7793 0.153809 15.8714 0.153809C16.9636 0.153809 17.8489 8.62592 17.8489 19.0768ZM21.0721 24.2802C21.914 24.2802 22.5965 19.0865 22.5965 12.6797C22.5965 6.27285 21.914 1.0791 21.0721 1.0791C20.2302 1.0791 19.5477 6.27285 19.5477 12.6797C19.5477 19.0865 20.2302 24.2802 21.0721 24.2802ZM21.072 37.8896C21.5559 37.8896 22.3921 36.1292 22.3921 33.9582C22.3921 31.7873 21.6123 30.0269 21.072 30.0269C20.4932 30.0269 19.752 31.7873 19.752 33.9582C19.752 36.1292 20.5881 37.8896 21.072 37.8896ZM25.8992 20.556C26.2864 20.556 26.6002 17.0146 26.6002 12.6459C26.6002 8.27732 26.2864 4.73584 25.8992 4.73584C25.512 4.73584 25.1981 8.27732 25.1981 12.6459C25.1981 17.0146 25.512 20.556 25.8992 20.556ZM25.8991 37.8571C26.1163 37.8571 26.5062 37.1395 26.5062 36.255C26.5062 35.3704 26.1727 34.6528 25.8991 34.6528C25.6059 34.6528 25.2921 35.3704 25.2921 36.255C25.2921 37.1395 25.6632 37.8571 25.8991 37.8571Z" fill="#CBFF54"/>
<path fill-rule="evenodd" clip-rule="evenodd" d="M39.6298 13.257H46.3942V32.8649H49.8995V13.257H56.3441V32.8666H59.7238V23.4576C59.7238 20.8195 61.4927 19.0392 63.8925 19.0392C66.2924 19.0392 67.4927 20.5648 67.4927 23.2348V32.8658H70.8724V22.7581C70.8724 18.5625 68.7564 16.1782 64.7765 16.1782C62.2177 16.1782 60.5437 17.4818 59.7229 18.88V10.2695H56.6639H56.3441H56.3433H39.6298V13.257ZM88.1298 24.4747C88.1298 19.5159 85.3819 16.1782 80.4557 16.1782C75.5294 16.1782 72.5909 19.9608 72.5909 24.6967C72.5909 30.164 75.7808 33.2478 80.5814 33.2478C84.0764 33.2478 86.7388 31.5699 87.7861 28.4766L84.627 28.1866C83.9687 29.8206 82.5974 30.546 80.6446 30.546C78.2448 30.546 76.0655 29.0196 75.9389 25.428H88.0981C88.1298 25.0787 88.1298 24.7603 88.1298 24.4747ZM76.0655 22.9809C76.5075 20.2791 78.2448 18.8482 80.5181 18.8482C82.7914 18.8482 84.4663 20.2154 84.7194 22.9809H76.0655ZM107.901 17.2349C107.901 20.477 106.164 23.2503 103.195 24.0135L109.133 32.8658H105.184L99.7213 24.6803H94.2257V32.8658H90.7195V10.2695H100.542C105.184 10.2695 107.901 13.0712 107.901 17.2349ZM94.2257 21.6928V13.2579H100.227C102.785 13.2579 104.364 14.8824 104.364 17.3304C104.364 19.7784 102.785 21.6928 100.227 21.6928H94.2257ZM124.136 24.4747C124.136 19.5159 121.388 16.1782 116.461 16.1782C111.534 16.1782 108.597 19.9608 108.597 24.6967C108.597 30.164 111.787 33.2478 116.588 33.2478C120.211 33.2478 122.938 31.4452 123.899 28.1324L120.757 27.8442C120.156 29.7191 118.735 30.546 116.651 30.546C114.25 30.546 112.071 29.0196 111.945 25.428H124.105C124.136 25.0787 124.136 24.7603 124.136 24.4747ZM112.071 22.9809C112.513 20.2791 114.25 18.8482 116.525 18.8482C118.799 18.8482 120.473 20.2154 120.725 22.9809H112.071ZM131.929 33.2478C136.256 33.2478 138.814 31.15 138.814 28.0662C138.814 25.2052 137.014 23.998 133.477 23.4258L131.455 23.1074C129.403 22.7899 128.518 22.185 128.518 20.946C128.518 19.7069 129.687 18.7845 131.803 18.7845C133.646 18.7845 134.957 19.6295 135.289 21.0535L138.283 21.328H138.562C138.34 18.276 136.003 16.1782 131.897 16.1782C127.792 16.1782 125.265 18.3397 125.265 21.2643C125.265 24.0298 127.065 25.428 130.697 25.9684L132.656 26.2859C134.55 26.5724 135.561 27.0173 135.561 28.3209C135.561 29.7828 134.392 30.6097 131.961 30.6097C130.022 30.6097 128.617 29.8998 128.174 28.5248L124.859 28.2202C125.299 31.3694 127.602 33.2478 131.929 33.2478ZM139.758 24.7285C139.758 19.7379 143.074 16.1782 147.97 16.1782C152.865 16.1782 156.182 19.5796 156.182 24.6967C156.182 29.8138 152.865 33.2469 147.97 33.2469C143.074 33.2469 139.758 29.8456 139.758 24.7285ZM152.739 24.6967C152.739 20.946 150.654 18.9747 147.97 18.9747C145.285 18.9747 143.201 20.9451 143.201 24.6967C143.201 28.4482 145.285 30.4496 147.97 30.4496C150.654 30.4496 152.739 28.4792 152.739 24.6967ZM161.024 16.5593H157.803V32.8657H161.182V23.4566C161.182 20.8185 162.951 19.0382 165.351 19.0382C167.751 19.0382 168.951 20.5638 168.951 23.2338V32.8648H172.331V22.7571C172.331 18.5616 170.215 16.1772 166.235 16.1772C163.487 16.1772 161.751 17.7037 161.024 19.1656V16.5593ZM190.147 16.5593H193.369V19.1656C194.096 17.7037 195.832 16.1772 198.58 16.1772C202.559 16.1772 204.676 18.5616 204.676 22.7571V32.8648H201.296V23.2338C201.296 20.5638 200.096 19.0382 197.696 19.0382C195.296 19.0382 193.527 20.8185 193.527 23.4566V32.8657H190.147V16.5593ZM187.529 28.3503C187.529 28.9361 187.528 29.9475 188.755 30.4264L188.833 32.9122C188.496 32.9226 188.236 32.9294 188.105 32.9294C187.304 32.9294 184.857 32.6111 184.528 30.6097C183.486 32.3891 181.464 33.2478 179.285 33.2478C175.717 33.2478 173.568 31.5312 173.568 28.6065C173.568 25.2689 176.19 24.0935 179.917 23.4895L181.748 23.1711C183.202 22.9491 184.149 22.5671 184.149 21.328C184.149 19.8652 182.949 18.88 180.833 18.88C178.559 18.88 177.485 19.9289 177.264 21.4545H174.011C174.168 18.5944 176.537 16.1782 180.928 16.1782C185.318 16.1782 187.529 18.3397 187.529 22.2177V28.3303V28.3503ZM179.917 30.6406C182.349 30.6406 184.212 29.3698 184.212 26.8271V24.824C183.896 25.1105 183.297 25.3007 182.507 25.428L180.643 25.8092C178.306 26.2859 176.948 26.7316 176.948 28.3845C176.948 29.8783 178.085 30.6406 179.917 30.6406ZM206.045 24.6967C206.045 19.6742 209.33 16.1782 213.973 16.1782C218.141 16.1782 220.858 18.467 221.458 22.1859H218.173C217.573 20.0881 216.089 18.9755 214.004 18.9755C211.478 18.9755 209.487 20.9141 209.487 24.6975C209.487 28.4809 211.477 30.4505 214.004 30.4505C216.152 30.4505 217.668 29.2743 218.236 27.1128H221.458C220.858 30.8635 218.078 33.2478 213.973 33.2478C209.109 33.2478 206.045 30.0056 206.045 24.6975V24.6967ZM230.52 16.1782C235.447 16.1782 238.195 19.5159 238.195 24.4747C238.195 24.7603 238.195 25.0787 238.163 25.428H226.004C226.131 29.0196 228.309 30.546 230.71 30.546C232.676 30.546 234.053 29.8103 234.705 28.1522L237.862 28.4413C236.824 31.557 234.155 33.2478 230.647 33.2478C225.846 33.2478 222.656 30.164 222.656 24.6967C222.656 19.9608 225.593 16.1782 230.52 16.1782ZM230.583 18.8482C228.309 18.8482 226.573 20.2791 226.131 22.9809H234.784C234.531 20.2154 232.857 18.8482 230.583 18.8482Z" fill="#CBFF54"/>
</g>
<defs>
<clipPath id="clip0_2488_194">
<rect width="238.195" height="38" fill="white"/>
</clipPath>
</defs>
</svg>
